<?xml version="1.0" encoding="iso-8859-1"?>
<!-- Generator: Adobe Illustrator 19.0.0, SVG Export Plug-In . SVG Version: 6.00 Build 0)  -->
<svg version="1.1" id="Capa_1" xmlns="http://www.w3.org/2000/svg" xmlns:xlink="http://www.w3.org/1999/xlink" x="0px" y="0px"
	 viewBox="0 0 490.667 490.667" style="enable-background:new 0 0 490.667 490.667;" xml:space="preserve">
<g>
	<g>
		<path d="M480,181.332H10.667C4.779,181.332,0,186.111,0,191.999s4.779,10.667,10.667,10.667H480
			c5.888,0,10.667-4.779,10.667-10.667S485.888,181.332,480,181.332z"/>
	</g>
</g>
<g>
	<g>
		<path d="M229.909,55.124c-4.928-3.264-11.541-1.92-14.784,2.965l-85.333,128c-3.264,4.907-1.941,11.52,2.965,14.784
			c1.835,1.216,3.883,1.792,5.909,1.792c3.435,0,6.827-1.664,8.875-4.757l85.333-128C236.139,65.002,234.816,58.388,229.909,55.124z
			"/>
	</g>
</g>
<g>
	<g>
		<path d="M360.853,186.09l-85.333-128c-3.264-4.907-9.877-6.229-14.784-2.965c-4.907,3.264-6.229,9.877-2.965,14.784l85.333,128
			c2.069,3.093,5.44,4.757,8.896,4.757c2.048,0,4.096-0.576,5.888-1.792C362.795,197.61,364.117,190.996,360.853,186.09z"/>
	</g>
</g>
<g>
	<g>
		<path d="M461.461,181.695c-5.632-1.536-11.563,1.792-13.099,7.488l-0.747,2.816H43.051l-0.768-2.795
			c-1.536-5.717-7.424-9.024-13.077-7.509c-5.696,1.557-9.045,7.424-7.488,13.099l55.424,203.221
			c6.315,23.168,27.456,39.317,51.456,39.317h233.472c24,0,45.141-16.149,51.456-39.296l55.424-203.221
			C470.507,189.119,467.157,183.252,461.461,181.695z M141.589,394.26c-0.981,0.277-1.963,0.405-2.923,0.405
			c-4.629,0-8.896-3.051-10.24-7.744L85.76,237.588c-1.621-5.653,1.664-11.563,7.339-13.184c5.611-1.536,11.563,1.664,13.184,7.339
			l42.667,149.333C150.549,386.73,147.264,392.639,141.589,394.26z M193.515,394.559c-0.512,0.064-1.024,0.107-1.515,0.107
			c-5.227,0-9.792-3.84-10.56-9.152L160.107,236.18c-0.832-5.824,3.221-11.243,9.045-12.075c5.867-0.896,11.243,3.2,12.075,9.045
			l21.333,149.333C203.392,388.33,199.339,393.727,193.515,394.559z M256,383.999c0,5.888-4.779,10.667-10.667,10.667
			s-10.667-4.779-10.667-10.667V234.666c0-5.888,4.779-10.667,10.667-10.667S256,228.778,256,234.666V383.999z M330.56,236.18
			l-21.333,149.333c-0.768,5.312-5.312,9.152-10.56,9.152c-0.491,0-1.003-0.021-1.515-0.107c-5.824-0.832-9.877-6.229-9.045-12.075
			l21.333-149.333c0.832-5.824,6.272-9.856,12.075-9.045C327.339,224.938,331.392,230.335,330.56,236.18z M404.928,237.588
			l-42.667,149.333c-1.344,4.693-5.611,7.744-10.261,7.744c-0.981,0-1.963-0.128-2.944-0.405c-5.675-1.621-8.939-7.531-7.339-13.184
			l42.667-149.333c1.621-5.675,7.595-8.896,13.184-7.339C403.264,226.026,406.549,231.935,404.928,237.588z"/>
	</g>
</g>
<g>
</g>
<g>
</g>
<g>
</g>
<g>
</g>
<g>
</g>
<g>
</g>
<g>
</g>
<g>
</g>
<g>
</g>
<g>
</g>
<g>
</g>
<g>
</g>
<g>
</g>
<g>
</g>
<g>
</g>
</svg>
